<?xml version="1.0" standalone="no"?><!DOCTYPE svg PUBLIC "-//W3C//DTD SVG 1.1//EN" "http://www.w3.org/Graphics/SVG/1.1/DTD/svg11.dtd"><svg t="1617767568456" class="icon" viewBox="0 0 1024 1024" version="1.1" xmlns="http://www.w3.org/2000/svg" p-id="8401" xmlns:xlink="http://www.w3.org/1999/xlink" width="200" height="200"><defs><style type="text/css"></style></defs><path d="M559.36 536.746667a256 256 0 0 0 116.48-213.333334 261.973333 261.973333 0 0 0-523.52 0 256 256 0 0 0 116.48 213.333334A387.84 387.84 0 0 0 21.333333 896v27.306667a36.693333 36.693333 0 0 0 72.96 0v-3.413334V896a320.426667 320.426667 0 0 1 640 0 234.24 234.24 0 0 1 0 24.746667 36.266667 36.266667 0 0 0 72.533334 0v-27.306667a387.84 387.84 0 0 0-247.466667-356.693333z m-145.066667-29.013334a185.6 185.6 0 1 1 187.733334-185.6 186.88 186.88 0 0 1-187.733334 185.6z m588.373334 323.84a37.12 37.12 0 0 1-37.12 35.413334 36.693333 36.693333 0 0 1-36.693334-36.693334 256 256 0 0 0-227.413333-261.12 42.666667 42.666667 0 0 1 0-82.773333 139.52 139.52 0 0 0 20.053333-270.506667L712.533333 213.333333a36.693333 36.693333 0 0 1 5.973334-73.386666H725.333333a213.333333 213.333333 0 0 1 71.253334 389.546666 323.84 323.84 0 0 1 206.933333 298.666667z" p-id="8402"></path></svg>