<?xml version="1.0" standalone="no"?><!DOCTYPE svg PUBLIC "-//W3C//DTD SVG 1.1//EN" "http://www.w3.org/Graphics/SVG/1.1/DTD/svg11.dtd"><svg t="1617767469562" class="icon" viewBox="0 0 1024 1024" version="1.1" xmlns="http://www.w3.org/2000/svg" p-id="3664" xmlns:xlink="http://www.w3.org/1999/xlink" width="200" height="200"><defs><style type="text/css"></style></defs><path d="M322.6 64h378.8c19.2 0 36.6 8.5 49.1 22.2 12 13.1 19.4 31.1 19.4 50.8v750c0 19.7-7.4 37.7-19.4 50.8-12.5 13.7-29.9 22.2-49.1 22.2H322.6c-19.2 0-36.6-8.5-49.1-22.2-12-13.1-19.4-31.1-19.4-50.8V137c0-19.7 7.4-37.7 19.4-50.8C286 72.5 303.4 64 322.6 64z" fill="#686868" p-id="3665"></path><path d="M726.1 823.7H297.9V887c0 8.4 3 16 8 21.4 4.4 4.8 10.3 7.8 16.8 7.8h378.8c6.4 0 12.4-3 16.8-7.8 4.9-5.4 7.9-13 7.9-21.4v-63.3h-0.1z" fill="#F2F2F2" p-id="3666"></path><path d="M297.9 197.9h428.3v582H297.9z" fill="#FFDE79" p-id="3667"></path><path d="M297.9 154.2h428.3V137c0-8.4-3-16-7.9-21.4-4.4-4.8-10.4-7.8-16.8-7.8H322.6c-6.4 0-12.4 3-16.8 7.8-4.9 5.4-8 12.9-8 21.4l0.1 17.2z" fill="#F2F2F2" p-id="3668"></path><path d="M494.9 893.5c-12.1 0-21.9-9.8-21.9-21.9 0-12.1 9.8-21.9 21.9-21.9h34.4c12.1 0 21.9 9.8 21.9 21.9 0 12.1-9.8 21.9-21.9 21.9h-34.4z" fill="#686868" p-id="3669"></path></svg>