<?xml version="1.0" standalone="no"?><!DOCTYPE svg PUBLIC "-//W3C//DTD SVG 1.1//EN" "http://www.w3.org/Graphics/SVG/1.1/DTD/svg11.dtd"><svg t="1617767559899" class="icon" viewBox="0 0 1139 1024" version="1.1" xmlns="http://www.w3.org/2000/svg" p-id="7627" xmlns:xlink="http://www.w3.org/1999/xlink" width="222.4609375" height="200"><defs><style type="text/css"></style></defs><path d="M785.454545 1023.569024H353.939394a138.558923 138.558923 0 0 1-119.703704-69.171718l-215.488215-373.656565a139.097643 139.097643 0 0 1 0-138.343435l215.488215-373.656565A138.558923 138.558923 0 0 1 353.939394 0H785.454545A138.774411 138.774411 0 0 1 905.050505 69.171717l215.488216 373.656566a138.558923 138.558923 0 0 1 0 138.343434L905.050505 954.828283A138.774411 138.774411 0 0 1 785.454545 1023.569024zM353.939394 61.090909a77.252525 77.252525 0 0 0-66.801347 38.572391l-215.488215 373.764309a77.575758 77.575758 0 0 0 0 77.144782l215.488215 373.764309a77.468013 77.468013 0 0 0 66.801347 38.572391H785.454545a77.683502 77.683502 0 0 0 66.909091-38.680135l215.488216-373.656565a77.144781 77.144781 0 0 0 0-77.144782l-215.488216-373.764309a77.360269 77.360269 0 0 0-66.909091-38.572391z" p-id="7628"></path><path d="M569.750842 704.107744a192.215488 192.215488 0 1 1 192.107744-192.107744 192.323232 192.323232 0 0 1-192.107744 192.107744z m0-323.232323A131.124579 131.124579 0 1 0 700.3367 512a131.232323 131.232323 0 0 0-130.585858-131.124579z" p-id="7629"></path></svg>